<mxfile host="65bd71144e">
    <diagram id="fj6Aveu1ztHzceYZpA2e" name="Page-1">
        <mxGraphModel dx="2411" dy="850" grid="1" gridSize="5" guides="1" tooltips="1" connect="1" arrows="1" fold="1" page="1" pageScale="1" pageWidth="827" pageHeight="1169" math="0" shadow="0">
            <root>
                <mxCell id="0"/>
                <mxCell id="1" parent="0"/>
                <mxCell id="7" value="&lt;font color=&quot;#000000&quot;&gt;Call to Action&lt;/font&gt;" style="rounded=0;whiteSpace=wrap;html=1;fontSize=14;movable=1;resizable=1;rotatable=1;deletable=1;editable=1;connectable=1;strokeColor=#82b366;strokeWidth=0;fillColor=#d5e8d4;" parent="1" vertex="1">
                    <mxGeometry x="-720" y="220" width="360" height="210" as="geometry"/>
                </mxCell>
                <mxCell id="10" value="&lt;font style=&quot;font-size: 15px;&quot;&gt;Footer with social media links&lt;/font&gt;" style="rounded=0;whiteSpace=wrap;html=1;fontSize=15;movable=1;resizable=1;rotatable=1;deletable=1;editable=1;connectable=1;strokeColor=#82b366;strokeWidth=0;labelBackgroundColor=none;fillColor=#d5e8d4;" parent="1" vertex="1">
                    <mxGeometry x="-720" y="910" width="360" height="45" as="geometry"/>
                </mxCell>
                <mxCell id="11" value="" style="rounded=0;whiteSpace=wrap;html=1;fontSize=24;fillColor=#18141D;movable=1;resizable=1;rotatable=1;deletable=1;editable=1;connectable=1;strokeColor=#FFFFFF;strokeWidth=0;gradientColor=default;" parent="1" vertex="1">
                    <mxGeometry x="-720" y="155" width="360" height="65" as="geometry"/>
                </mxCell>
                <mxCell id="12" value="&lt;font style=&quot;font-size: 10px;&quot;&gt;Nav&lt;/font&gt;" style="whiteSpace=wrap;html=1;aspect=fixed;fontSize=20;verticalAlign=top;gradientColor=none;fillColor=default;strokeWidth=1;horizontal=1;labelPosition=center;verticalLabelPosition=middle;align=center;movable=1;resizable=1;rotatable=1;deletable=1;editable=1;connectable=1;fontFamily=Helvetica;strokeColor=#999999;spacing=1;rounded=0;glass=0;shadow=0;" parent="1" vertex="1">
                    <mxGeometry x="-414" y="165" width="40" height="40" as="geometry"/>
                </mxCell>
                <mxCell id="18" value="&lt;font style=&quot;font-size: 14px;&quot;&gt;Post Excerpt&lt;/font&gt;" style="rounded=0;whiteSpace=wrap;html=1;strokeColor=#6c8ebf;fontFamily=Helvetica;fontSize=11;fillColor=#dae8fc;movable=1;resizable=1;rotatable=1;deletable=1;editable=1;connectable=1;strokeWidth=0;labelBackgroundColor=none;" parent="1" vertex="1">
                    <mxGeometry x="-720" y="685" width="360" height="225" as="geometry"/>
                </mxCell>
                <mxCell id="25" value="&lt;font style=&quot;font-size: 14px;&quot;&gt;Featured Image&lt;/font&gt;" style="rounded=0;whiteSpace=wrap;html=1;fillColor=#dae8fc;strokeColor=#6c8ebf;movable=1;resizable=1;rotatable=1;deletable=1;editable=1;connectable=1;strokeWidth=0;labelBackgroundColor=none;" parent="1" vertex="1">
                    <mxGeometry x="-720" y="430" width="360" height="225" as="geometry"/>
                </mxCell>
                <mxCell id="27" value="Author" style="rounded=0;whiteSpace=wrap;html=1;strokeColor=#82b366;strokeWidth=0;fontSize=10;fillColor=#d5e8d4;align=center;spacingLeft=2;verticalAlign=middle;movable=1;resizable=1;rotatable=1;deletable=1;editable=1;connectable=1;labelBackgroundColor=none;" parent="1" vertex="1">
                    <mxGeometry x="-480" y="655" width="120" height="30" as="geometry"/>
                </mxCell>
                <mxCell id="28" value="&lt;span style=&quot;&quot;&gt;Number of likes&lt;/span&gt;" style="rounded=0;whiteSpace=wrap;html=1;strokeColor=#82b366;strokeWidth=0;fontSize=10;fillColor=#d5e8d4;align=center;spacingLeft=2;verticalAlign=middle;movable=1;resizable=1;rotatable=1;deletable=1;editable=1;connectable=1;labelBackgroundColor=none;" parent="1" vertex="1">
                    <mxGeometry x="-720" y="655" width="120" height="30" as="geometry"/>
                </mxCell>
                <mxCell id="29" value="Number of comments" style="rounded=0;whiteSpace=wrap;html=1;strokeColor=#82b366;strokeWidth=0;fontSize=10;fillColor=#d5e8d4;align=center;spacingLeft=2;verticalAlign=middle;movable=1;resizable=1;rotatable=1;deletable=1;editable=1;connectable=1;labelBackgroundColor=none;" parent="1" vertex="1">
                    <mxGeometry x="-600" y="655" width="120" height="30" as="geometry"/>
                </mxCell>
                <mxCell id="32" value="&lt;span style=&quot;text-decoration-line: underline;&quot;&gt;&lt;font style=&quot;font-size: 12px;&quot;&gt;Homepage - Mobile view&lt;/font&gt;&lt;/span&gt;" style="text;html=1;align=left;verticalAlign=middle;resizable=0;points=[];autosize=1;strokeColor=none;fillColor=none;movable=0;rotatable=0;deletable=0;editable=0;connectable=0;strokeWidth=0;" parent="1" vertex="1">
                    <mxGeometry x="-340" y="155" width="155" height="30" as="geometry"/>
                </mxCell>
                <mxCell id="33" value="&lt;span style=&quot;&quot;&gt;Based on Samsung Galaxy S20&lt;br&gt;Screen: 360 x 800&lt;/span&gt;" style="text;html=1;align=left;verticalAlign=middle;resizable=0;points=[];autosize=1;strokeColor=none;fillColor=none;fontSize=12;movable=0;rotatable=0;deletable=0;editable=0;connectable=0;strokeWidth=0;" parent="1" vertex="1">
                    <mxGeometry x="-340" y="190" width="190" height="45" as="geometry"/>
                </mxCell>
                <mxCell id="34" value="" style="dashed=0;outlineConnect=0;html=1;align=center;labelPosition=center;verticalLabelPosition=bottom;verticalAlign=top;shape=mxgraph.weblogos.freshbump;fillColor=#C2D952;strokeColor=none;strokeWidth=0;movable=1;resizable=1;rotatable=1;deletable=1;editable=1;connectable=1;" parent="1" vertex="1">
                    <mxGeometry x="-715" y="160" width="40" height="40" as="geometry"/>
                </mxCell>
                <mxCell id="36" value="&lt;font color=&quot;#ffffff&quot;&gt;Search&lt;/font&gt;" style="strokeWidth=2;shadow=0;dashed=0;align=center;html=1;shape=mxgraph.mockup.forms.searchBox;strokeColor=#999999;mainText=;strokeColor2=#008cff;fontColor=#666666;fontSize=17;align=left;spacingLeft=3;movable=1;resizable=1;rotatable=1;deletable=1;editable=1;connectable=1;" parent="1" vertex="1">
                    <mxGeometry x="-665" y="165" width="215" height="40" as="geometry"/>
                </mxCell>
            </root>
        </mxGraphModel>
    </diagram>
</mxfile>